adventprofmm_reg_krn_t1_1.ufo
<glyph name="dollar" format="1">
  <advance width="463"/>
  <unicode hex="0024"/>
  <outline>
    <contour>
      <point x="372" y="561" type="curve"/>
      <point x="388" y="608" type="line"/>
      <point x="346" y="631"/>
      <point x="292" y="643"/>
      <point x="240" y="643" type="curve" smooth="yes"/>
      <point x="190" y="642"/>
      <point x="141" y="630"/>
      <point x="105" y="604" type="curve" smooth="yes"/>
      <point x="71" y="580"/>
      <point x="49" y="545"/>
      <point x="47" y="497" type="curve" smooth="yes"/>
      <point x="42" y="406"/>
      <point x="109" y="365"/>
      <point x="185" y="332" type="curve" smooth="yes"/>
      <point x="215" y="319"/>
      <point x="246" y="307"/>
      <point x="275" y="294" type="curve" smooth="yes"/>
      <point x="340" y="265"/>
      <point x="393" y="230"/>
      <point x="390" y="161" type="curve" smooth="yes"/>
      <point x="388" y="127"/>
      <point x="376" y="101"/>
      <point x="358" y="82" type="curve" smooth="yes"/>
      <point x="326" y="50"/>
      <point x="276" y="37"/>
      <point x="226" y="37" type="curve" smooth="yes"/>
      <point x="175" y="37"/>
      <point x="135" y="56"/>
      <point x="110" y="75" type="curve" smooth="yes"/>
      <point x="66" y="108"/>
      <point x="56" y="145"/>
      <point x="56" y="145" type="curve"/>
      <point x="15" y="119" type="line"/>
      <point x="15" y="119"/>
      <point x="32" y="70"/>
      <point x="84" y="32" type="curve" smooth="yes"/>
      <point x="117" y="8"/>
      <point x="164" y="-12"/>
      <point x="230" y="-12" type="curve" smooth="yes"/>
      <point x="288" y="-12"/>
      <point x="347" y="3"/>
      <point x="389" y="38" type="curve" smooth="yes"/>
      <point x="421" y="66"/>
      <point x="442" y="106"/>
      <point x="444" y="162" type="curve" smooth="yes"/>
      <point x="448" y="255"/>
      <point x="378" y="303"/>
      <point x="299" y="338" type="curve" smooth="yes"/>
      <point x="267" y="353"/>
      <point x="234" y="366"/>
      <point x="204" y="379" type="curve" smooth="yes"/>
      <point x="143" y="405"/>
      <point x="96" y="435"/>
      <point x="99" y="491" type="curve" smooth="yes"/>
      <point x="101" y="526"/>
      <point x="117" y="551"/>
      <point x="141" y="568" type="curve"/>
      <point x="168" y="585"/>
      <point x="203" y="594"/>
      <point x="241" y="594" type="curve" smooth="yes"/>
      <point x="286" y="594"/>
      <point x="334" y="582"/>
    </contour>
    <contour>
      <point x="266" y="741" type="line"/>
      <point x="215" y="741" type="line"/>
      <point x="215" y="-103" type="line"/>
      <point x="266" y="-103" type="line"/>
    </contour>
  </outline>
</glyph>
<glyph name="period" format="1">
  <advance width="95"/>
  <unicode hex="002E"/>
  <outline>
    <contour>
      <point x="47" y="52" type="curve" smooth="yes"/>
      <point x="31" y="52"/>
      <point x="17" y="39"/>
      <point x="17" y="22" type="curve" smooth="yes"/>
      <point x="17" y="5"/>
      <point x="31" y="-8"/>
      <point x="47" y="-8" type="curve" smooth="yes"/>
      <point x="64" y="-8"/>
      <point x="78" y="5"/>
      <point x="78" y="22" type="curve" smooth="yes"/>
      <point x="78" y="39"/>
      <point x="64" y="52"/>
    </contour>
  </outline>
</glyph>
<glyph name="semicolon" format="1">
  <advance width="103"/>
  <unicode hex="003B"/>
  <outline>
    <contour>
      <point x="18" y="32" type="curve"/>
      <point x="34" y="21" type="line"/>
      <point x="52" y="37"/>
      <point x="81" y="73"/>
      <point x="82" y="130" type="curve"/>
      <point x="81" y="148"/>
      <point x="68" y="160"/>
      <point x="51" y="160" type="curve" smooth="yes"/>
      <point x="34" y="160"/>
      <point x="21" y="147"/>
      <point x="21" y="130" type="curve" smooth="yes"/>
      <point x="21" y="115"/>
      <point x="32" y="102"/>
      <point x="46" y="100" type="curve"/>
      <point x="44" y="81"/>
      <point x="37" y="56"/>
    </contour>
    <contour>
      <point x="84" y="349" type="curve" smooth="yes"/>
      <point x="84" y="366"/>
      <point x="70" y="379"/>
      <point x="54" y="379" type="curve" smooth="yes"/>
      <point x="37" y="379"/>
      <point x="23" y="366"/>
      <point x="23" y="349" type="curve" smooth="yes"/>
      <point x="23" y="332"/>
      <point x="37" y="319"/>
      <point x="54" y="319" type="curve" smooth="yes"/>
      <point x="70" y="319"/>
      <point x="84" y="332"/>
    </contour>
  </outline>
</glyph>
<glyph name="less" format="1">
  <advance width="321"/>
  <unicode hex="003C"/>
  <outline>
    <contour>
      <point x="304" y="107" type="line"/>
      <point x="85" y="324" type="line"/>
      <point x="304" y="543" type="line"/>
      <point x="268" y="577" type="line"/>
      <point x="16" y="325" type="line"/>
      <point x="268" y="72" type="line"/>
    </contour>
  </outline>
</glyph>
<glyph name="b" format="1">
  <advance width="382"/>
  <unicode hex="0062"/>
  <outline>
    <contour>
      <point x="71" y="428" type="curve"/>
      <point x="71" y="635" type="line"/>
      <point x="20" y="635" type="line"/>
      <point x="20" y="0" type="line"/>
      <point x="20" y="0"/>
      <point x="118" y="-8"/>
      <point x="163" y="-9" type="curve" smooth="yes"/>
      <point x="280" y="-13"/>
      <point x="369" y="19"/>
      <point x="369" y="153" type="curve" smooth="yes"/>
      <point x="369" y="210"/>
      <point x="369" y="268"/>
      <point x="369" y="325" type="curve" smooth="yes"/>
      <point x="369" y="427"/>
      <point x="291" y="462"/>
      <point x="218" y="462" type="curve" smooth="yes"/>
      <point x="159" y="462"/>
      <point x="112" y="446"/>
    </contour>
    <contour>
      <point x="71" y="42" type="curve"/>
      <point x="71" y="156"/>
      <point x="71" y="270"/>
      <point x="71" y="384" type="curve"/>
      <point x="120" y="404"/>
      <point x="164" y="419"/>
      <point x="222" y="419" type="curve" smooth="yes"/>
      <point x="256" y="419"/>
      <point x="319" y="405"/>
      <point x="319" y="322" type="curve" smooth="yes"/>
      <point x="319" y="302"/>
      <point x="319" y="177"/>
      <point x="319" y="159" type="curve" smooth="yes"/>
      <point x="319" y="73"/>
      <point x="288" y="30"/>
      <point x="167" y="35" type="curve" smooth="yes"/>
      <point x="108" y="38"/>
      <point x="71" y="42"/>
    </contour>
  </outline>
</glyph>
<glyph name="i" format="1">
  <advance width="98"/>
  <unicode hex="0069"/>
  <outline>
    <contour>
      <point x="74" y="454" type="line"/>
      <point x="23" y="454" type="line"/>
      <point x="23" y="0" type="line"/>
      <point x="74" y="0" type="line"/>
    </contour>
    <contour>
      <point x="49" y="644" type="curve" smooth="yes"/>
      <point x="32" y="644"/>
      <point x="18" y="630"/>
      <point x="18" y="613" type="curve" smooth="yes"/>
      <point x="18" y="596"/>
      <point x="32" y="583"/>
      <point x="49" y="583" type="curve" smooth="yes"/>
      <point x="65" y="583"/>
      <point x="79" y="596"/>
      <point x="79" y="613" type="curve" smooth="yes"/>
      <point x="79" y="630"/>
      <point x="65" y="644"/>
    </contour>
  </outline>
</glyph>
<glyph name="y" format="1">
  <advance width="390"/>
  <unicode hex="0079"/>
  <outline>
    <contour>
      <point x="379" y="425" type="curve"/>
      <point x="361" y="464" type="line"/>
      <point x="317" y="449"/>
      <point x="298" y="412"/>
      <point x="298" y="371" type="curve" smooth="yes"/>
      <point x="298" y="157" type="line" smooth="yes"/>
      <point x="298" y="93"/>
      <point x="247" y="40"/>
      <point x="183" y="40" type="curve" smooth="yes"/>
      <point x="126" y="40"/>
      <point x="65" y="63"/>
      <point x="65" y="146" type="curve" smooth="yes"/>
      <point x="65" y="454" type="line"/>
      <point x="14" y="454" type="line"/>
      <point x="14" y="143" type="line" smooth="yes"/>
      <point x="14" y="40"/>
      <point x="72" y="-8"/>
      <point x="172" y="-8" type="curve" smooth="yes"/>
      <point x="217" y="-8"/>
      <point x="268" y="9"/>
      <point x="298" y="45" type="curve"/>
      <point x="298" y="-55" type="line" smooth="yes"/>
      <point x="298" y="-81"/>
      <point x="293" y="-102"/>
      <point x="281" y="-118" type="curve" smooth="yes"/>
      <point x="271" y="-132"/>
      <point x="257" y="-143"/>
      <point x="239" y="-150" type="curve"/>
      <point x="254" y="-189" type="line"/>
      <point x="283" y="-179"/>
      <point x="305" y="-167"/>
      <point x="321" y="-150" type="curve" smooth="yes"/>
      <point x="341" y="-127"/>
      <point x="349" y="-97"/>
      <point x="349" y="-56" type="curve" smooth="yes"/>
      <point x="349" y="370" type="line" smooth="yes"/>
      <point x="349" y="407"/>
      <point x="362" y="418"/>
    </contour>
  </outline>
</glyph>
<glyph name="braceright" format="1">
  <advance width="223"/>
  <unicode hex="007D"/>
  <outline>
    <contour>
      <point x="34" y="745" type="curve"/>
      <point x="14" y="702" type="line"/>
      <point x="40" y="688"/>
      <point x="82" y="652"/>
      <point x="82" y="571" type="curve" smooth="yes"/>
      <point x="82" y="468" type="line" smooth="yes"/>
      <point x="82" y="417"/>
      <point x="86" y="367"/>
      <point x="142" y="320" type="curve"/>
      <point x="86" y="273"/>
      <point x="82" y="223"/>
      <point x="82" y="172" type="curve" smooth="yes"/>
      <point x="82" y="69" type="line" smooth="yes"/>
      <point x="82" y="-12"/>
      <point x="40" y="-47"/>
      <point x="13" y="-61" type="curve"/>
      <point x="33" y="-106" type="line"/>
      <point x="38" y="-104"/>
      <point x="133" y="-77"/>
      <point x="133" y="69" type="curve" smooth="yes"/>
      <point x="133" y="172" type="line" smooth="yes"/>
      <point x="133" y="223"/>
      <point x="138" y="268"/>
      <point x="196" y="313" type="curve" smooth="yes"/>
      <point x="206" y="320" type="line"/>
      <point x="196" y="327" type="line" smooth="yes"/>
      <point x="138" y="371"/>
      <point x="133" y="417"/>
      <point x="133" y="468" type="curve" smooth="yes"/>
      <point x="133" y="571" type="line" smooth="yes"/>
      <point x="133" y="717"/>
      <point x="38" y="744"/>
    </contour>
  </outline>
</glyph>
<glyph name="cent" format="1">
  <advance width="324"/>
  <unicode hex="00A2"/>
  <outline>
    <contour>
      <point x="292" y="391" type="curve"/>
      <point x="306" y="433" type="line"/>
      <point x="254" y="457"/>
      <point x="193" y="469"/>
      <point x="141" y="458" type="curve" smooth="yes"/>
      <point x="100" y="449"/>
      <point x="65" y="427"/>
      <point x="42" y="387" type="curve" smooth="yes"/>
      <point x="24" y="358"/>
      <point x="18" y="329"/>
      <point x="16" y="289" type="curve"/>
      <point x="16" y="157" type="line" smooth="yes"/>
      <point x="16" y="68"/>
      <point x="56" y="21"/>
      <point x="118" y="1" type="curve" smooth="yes"/>
      <point x="172" y="-16"/>
      <point x="247" y="-12"/>
      <point x="308" y="5" type="curve"/>
      <point x="298" y="50" type="line"/>
      <point x="298" y="50"/>
      <point x="187" y="24"/>
      <point x="129" y="47" type="curve" smooth="yes"/>
      <point x="81" y="65"/>
      <point x="66" y="108"/>
      <point x="66" y="168" type="curve" smooth="yes"/>
      <point x="66" y="277" type="line" smooth="yes"/>
      <point x="66" y="309"/>
      <point x="72" y="337"/>
      <point x="83" y="358" type="curve" smooth="yes"/>
      <point x="98" y="387"/>
      <point x="121" y="405"/>
      <point x="149" y="412" type="curve" smooth="yes"/>
      <point x="188" y="422"/>
      <point x="249" y="411"/>
    </contour>
    <contour>
      <point x="211" y="565" type="line"/>
      <point x="160" y="565" type="line"/>
      <point x="160" y="-103" type="line"/>
      <point x="211" y="-103" type="line"/>
    </contour>
  </outline>
</glyph>
<glyph name="paragraph" format="1">
  <advance width="535"/>
  <unicode hex="00B6"/>
  <outline>
    <contour>
      <point x="359" y="224" type="line"/>
      <point x="359" y="1" type="line"/>
      <point x="409" y="1" type="line"/>
      <point x="409" y="591" type="line"/>
      <point x="463" y="590" type="line"/>
      <point x="463" y="1" type="line"/>
      <point x="514" y="1" type="line"/>
      <point x="514" y="636" type="line"/>
      <point x="195" y="636" type="line" smooth="yes"/>
      <point x="80" y="636"/>
      <point x="16" y="586"/>
      <point x="16" y="431" type="curve" smooth="yes"/>
      <point x="16" y="280"/>
      <point x="76" y="224"/>
      <point x="195" y="224" type="curve" smooth="yes"/>
    </contour>
    <contour>
      <point x="192" y="588" type="curve" smooth="yes"/>
      <point x="359" y="588" type="line"/>
      <point x="359" y="273" type="line"/>
      <point x="192" y="273" type="line" smooth="yes"/>
      <point x="123" y="273"/>
      <point x="67" y="293"/>
      <point x="67" y="431" type="curve" smooth="yes"/>
      <point x="67" y="559"/>
      <point x="120" y="588"/>
    </contour>
  </outline>
</glyph>
<glyph name="multiply" format="1">
  <advance width="292"/>
  <unicode hex="00D7"/>
  <outline>
    <contour>
      <point x="17" y="419" type="line"/>
      <point x="113" y="302" type="line"/>
      <point x="17" y="186" type="line"/>
      <point x="55" y="152" type="line"/>
      <point x="146" y="263" type="line"/>
      <point x="237" y="152" type="line"/>
      <point x="275" y="186" type="line"/>
      <point x="178" y="302" type="line"/>
      <point x="275" y="419" type="line"/>
      <point x="237" y="450" type="line"/>
      <point x="146" y="340" type="line"/>
      <point x="54" y="450" type="line"/>
    </contour>
  </outline>
</glyph>
<glyph name="Uacute" format="1">
  <advance width="414"/>
  <unicode hex="00DA"/>
  <outline>
    <contour>
      <point x="396" y="168" type="curve" smooth="yes"/>
      <point x="396" y="635" type="line"/>
      <point x="346" y="635" type="line"/>
      <point x="346" y="169" type="line" smooth="yes"/>
      <point x="346" y="127"/>
      <point x="333" y="96"/>
      <point x="311" y="74" type="curve" smooth="yes"/>
      <point x="286" y="49"/>
      <point x="250" y="38"/>
      <point x="206" y="38" type="curve" smooth="yes"/>
      <point x="168" y="38"/>
      <point x="134" y="48"/>
      <point x="110" y="67" type="curve" smooth="yes"/>
      <point x="82" y="89"/>
      <point x="66" y="123"/>
      <point x="66" y="169" type="curve" smooth="yes"/>
      <point x="66" y="635" type="line"/>
      <point x="16" y="635" type="line"/>
      <point x="16" y="168" type="line" smooth="yes"/>
      <point x="16" y="107"/>
      <point x="35" y="62"/>
      <point x="72" y="33" type="curve" smooth="yes"/>
      <point x="110" y="4"/>
      <point x="155" y="-10"/>
      <point x="207" y="-10" type="curve" smooth="yes"/>
      <point x="258" y="-10"/>
      <point x="303" y="4"/>
      <point x="340" y="33" type="curve" smooth="yes"/>
      <point x="377" y="62"/>
      <point x="396" y="107"/>
    </contour>
    <contour>
      <point x="226" y="772" type="curve"/>
      <point x="191" y="675" type="line"/>
      <point x="223" y="675" type="line"/>
      <point x="272" y="747" type="line"/>
      <point x="283" y="760"/>
      <point x="282" y="781"/>
      <point x="266" y="790" type="curve" smooth="yes"/>
      <point x="250" y="799"/>
      <point x="231" y="789"/>
    </contour>
  </outline>
</glyph>
<glyph name="icircumflex" format="1">
  <advance width="233"/>
  <unicode hex="00EE"/>
  <outline>
    <contour>
      <point x="140" y="454" type="line"/>
      <point x="89" y="454" type="line"/>
      <point x="89" y="0" type="line"/>
      <point x="140" y="0" type="line"/>
    </contour>
    <contour>
      <point x="116" y="576" type="line"/>
      <point x="197" y="496" type="line"/>
      <point x="233" y="530" type="line"/>
      <point x="116" y="644" type="line"/>
      <point x="-3" y="529" type="line"/>
      <point x="32" y="494" type="line"/>
    </contour>
  </outline>
</glyph>
<glyph name="ocircumflex" format="1">
  <advance width="359"/>
  <unicode hex="00F4"/>
  <outline>
    <contour>
      <point x="346" y="167" type="curve" smooth="yes"/>
      <point x="346" y="286" type="line" smooth="yes"/>
      <point x="346" y="396"/>
      <point x="288" y="464"/>
      <point x="180" y="464" type="curve" smooth="yes"/>
      <point x="72" y="464"/>
      <point x="11" y="402"/>
      <point x="11" y="286" type="curve" smooth="yes"/>
      <point x="11" y="167" type="line" smooth="yes"/>
      <point x="11" y="68"/>
      <point x="69" y="-9"/>
      <point x="182" y="-9" type="curve" smooth="yes"/>
      <point x="294" y="-9"/>
      <point x="346" y="65"/>
    </contour>
    <contour>
      <point x="295" y="286" type="curve" smooth="yes"/>
      <point x="295" y="158" type="line" smooth="yes"/>
      <point x="295" y="84"/>
      <point x="257" y="36"/>
      <point x="182" y="36" type="curve" smooth="yes"/>
      <point x="108" y="36"/>
      <point x="62" y="85"/>
      <point x="62" y="158" type="curve" smooth="yes"/>
      <point x="62" y="286" type="line" smooth="yes"/>
      <point x="62" y="374"/>
      <point x="102" y="418"/>
      <point x="182" y="418" type="curve" smooth="yes"/>
      <point x="260" y="418"/>
      <point x="295" y="374"/>
    </contour>
    <contour>
      <point x="185" y="584" type="line"/>
      <point x="280" y="489" type="line"/>
      <point x="315" y="525" type="line"/>
      <point x="186" y="653" type="line"/>
      <point x="52" y="525" type="line"/>
      <point x="86" y="489" type="line"/>
    </contour>
  </outline>
</glyph>
<glyph name="Abreve" format="1">
  <advance width="467"/>
  <unicode hex="0102"/>
  <outline>
    <contour>
      <point x="208" y="635" type="line"/>
      <point x="5" y="0" type="line"/>
      <point x="59" y="0" type="line"/>
      <point x="130" y="222" type="line"/>
      <point x="336" y="222" type="line"/>
      <point x="409" y="0" type="line"/>
      <point x="463" y="0" type="line"/>
      <point x="256" y="635" type="line"/>
    </contour>
    <contour>
      <point x="323" y="272" type="line"/>
      <point x="144" y="272" type="line"/>
      <point x="232" y="556" type="line"/>
    </contour>
    <contour>
      <point x="174" y="777" type="curve" smooth="yes"/>
      <point x="174" y="783" type="line"/>
      <point x="132" y="783" type="line"/>
      <point x="132" y="777" type="line" smooth="yes"/>
      <point x="132" y="720"/>
      <point x="178" y="674"/>
      <point x="235" y="674" type="curve" smooth="yes"/>
      <point x="292" y="674"/>
      <point x="338" y="720"/>
      <point x="338" y="777" type="curve" smooth="yes"/>
      <point x="338" y="783" type="line"/>
      <point x="297" y="783" type="line"/>
      <point x="297" y="777" type="line" smooth="yes"/>
      <point x="297" y="743"/>
      <point x="269" y="715"/>
      <point x="235" y="715" type="curve" smooth="yes"/>
      <point x="201" y="715"/>
      <point x="174" y="743"/>
    </contour>
  </outline>
</glyph>
<glyph name="edotaccent" format="1">
  <advance width="351"/>
  <unicode hex="0117"/>
  <outline>
    <contour>
      <point x="63" y="121" type="curve" smooth="yes"/>
      <point x="63" y="177" type="line"/>
      <point x="339" y="192" type="line"/>
      <point x="339" y="310" type="line" smooth="yes"/>
      <point x="339" y="356"/>
      <point x="325" y="393"/>
      <point x="300" y="419" type="curve" smooth="yes"/>
      <point x="272" y="447"/>
      <point x="231" y="462"/>
      <point x="179" y="462" type="curve" smooth="yes"/>
      <point x="134" y="462"/>
      <point x="96" y="451"/>
      <point x="68" y="430" type="curve" smooth="yes"/>
      <point x="33" y="404"/>
      <point x="12" y="362"/>
      <point x="12" y="307" type="curve" smooth="yes"/>
      <point x="12" y="121" type="line" smooth="yes"/>
      <point x="12" y="73"/>
      <point x="27" y="42"/>
      <point x="49" y="22" type="curve" smooth="yes"/>
      <point x="86" y="-12"/>
      <point x="141" y="-11"/>
      <point x="168" y="-11" type="curve" smooth="yes"/>
      <point x="214" y="-10"/>
      <point x="270" y="4"/>
      <point x="316" y="32" type="curve"/>
      <point x="296" y="71" type="line"/>
      <point x="250" y="46"/>
      <point x="208" y="33"/>
      <point x="164" y="33" type="curve" smooth="yes"/>
      <point x="146" y="33"/>
      <point x="109" y="33"/>
      <point x="86" y="57" type="curve"/>
      <point x="72" y="70"/>
      <point x="63" y="90"/>
    </contour>
    <contour>
      <point x="288" y="316" type="curve" smooth="yes"/>
      <point x="288" y="290"/>
      <point x="288" y="263"/>
      <point x="288" y="237" type="curve"/>
      <point x="63" y="227" type="line"/>
      <point x="63" y="253"/>
      <point x="63" y="280"/>
      <point x="63" y="306" type="curve" smooth="yes"/>
      <point x="63" y="344"/>
      <point x="74" y="371"/>
      <point x="94" y="390" type="curve" smooth="yes"/>
      <point x="115" y="409"/>
      <point x="144" y="419"/>
      <point x="178" y="419" type="curve" smooth="yes"/>
      <point x="208" y="419"/>
      <point x="239" y="413"/>
      <point x="267" y="380" type="curve" smooth="yes"/>
      <point x="281" y="363"/>
      <point x="288" y="343"/>
    </contour>
    <contour>
      <point x="211" y="554" type="curve" smooth="yes"/>
      <point x="211" y="571"/>
      <point x="198" y="584"/>
      <point x="181" y="584" type="curve" smooth="yes"/>
      <point x="164" y="584"/>
      <point x="151" y="571"/>
      <point x="151" y="554" type="curve" smooth="yes"/>
      <point x="151" y="537"/>
      <point x="164" y="524"/>
      <point x="181" y="524" type="curve" smooth="yes"/>
      <point x="198" y="524"/>
      <point x="211" y="537"/>
    </contour>
  </outline>
</glyph>
<glyph name="lcaron" format="1">
  <advance width="199"/>
  <unicode hex="013E"/>
  <outline>
    <contour>
      <point x="124" y="635" type="line"/>
      <point x="74" y="635" type="line"/>
      <point x="74" y="0" type="line"/>
      <point x="124" y="0" type="line"/>
    </contour>
    <contour>
      <point x="-19" y="789" type="line"/>
      <point x="97" y="675" type="line"/>
      <point x="217" y="790" type="line"/>
      <point x="182" y="825" type="line"/>
      <point x="97" y="744" type="line"/>
      <point x="16" y="823" type="line"/>
    </contour>
  </outline>
</glyph>
<glyph name="tcommaaccent" format="1">
  <advance width="190"/>
  <unicode hex="0163"/>
  <outline>
    <contour>
      <point x="74" y="120" type="curve" smooth="yes"/>
      <point x="74" y="406" type="line"/>
      <point x="161" y="406" type="line"/>
      <point x="183" y="454" type="line"/>
      <point x="74" y="454" type="line"/>
      <point x="74" y="635" type="line"/>
      <point x="23" y="635" type="line"/>
      <point x="23" y="120" type="line" smooth="yes"/>
      <point x="23" y="48"/>
      <point x="51" y="7"/>
      <point x="119" y="-12" type="curve"/>
      <point x="134" y="27" type="line"/>
      <point x="94" y="41"/>
      <point x="74" y="72"/>
    </contour>
    <contour>
      <point x="14" y="-180" type="curve"/>
      <point x="30" y="-191" type="line"/>
      <point x="48" y="-174"/>
      <point x="78" y="-139"/>
      <point x="78" y="-82" type="curve" smooth="yes"/>
      <point x="78" y="-64"/>
      <point x="64" y="-51"/>
      <point x="47" y="-51" type="curve" smooth="yes"/>
      <point x="31" y="-51"/>
      <point x="17" y="-65"/>
      <point x="17" y="-82" type="curve" smooth="yes"/>
      <point x="17" y="-97"/>
      <point x="28" y="-109"/>
      <point x="42" y="-112" type="curve"/>
      <point x="40" y="-131"/>
      <point x="33" y="-156"/>
    </contour>
  </outline>
</glyph>
<glyph name="scommaaccent" format="1">
  <advance width="349"/>
  <unicode hex="0219"/>
  <outline>
    <contour>
      <point x="278" y="399" type="curve"/>
      <point x="298" y="433" type="line"/>
      <point x="253" y="458"/>
      <point x="216" y="466"/>
      <point x="179" y="465" type="curve" smooth="yes"/>
      <point x="144" y="464"/>
      <point x="111" y="455"/>
      <point x="85" y="438" type="curve" smooth="yes"/>
      <point x="50" y="415"/>
      <point x="29" y="379"/>
      <point x="33" y="330" type="curve" smooth="yes"/>
      <point x="37" y="295"/>
      <point x="57" y="271"/>
      <point x="83" y="253" type="curve" smooth="yes"/>
      <point x="109" y="235"/>
      <point x="143" y="222"/>
      <point x="175" y="210" type="curve" smooth="yes"/>
      <point x="206" y="198"/>
      <point x="235" y="187"/>
      <point x="257" y="171" type="curve" smooth="yes"/>
      <point x="277" y="156"/>
      <point x="289" y="138"/>
      <point x="289" y="111" type="curve"/>
      <point x="288" y="87"/>
      <point x="275" y="66"/>
      <point x="254" y="52" type="curve" smooth="yes"/>
      <point x="235" y="39"/>
      <point x="208" y="31"/>
      <point x="179" y="31" type="curve" smooth="yes"/>
      <point x="152" y="31"/>
      <point x="128" y="36"/>
      <point x="107" y="44" type="curve" smooth="yes"/>
      <point x="78" y="56"/>
      <point x="55" y="73"/>
      <point x="37" y="91" type="curve"/>
      <point x="9" y="63" type="line"/>
      <point x="32" y="35"/>
      <point x="59" y="16"/>
      <point x="87" y="4" type="curve" smooth="yes"/>
      <point x="117" y="-9"/>
      <point x="149" y="-14"/>
      <point x="179" y="-15" type="curve" smooth="yes"/>
      <point x="215" y="-16"/>
      <point x="249" y="-7"/>
      <point x="276" y="10" type="curve" smooth="yes"/>
      <point x="314" y="33"/>
      <point x="339" y="72"/>
      <point x="336" y="122" type="curve" smooth="yes"/>
      <point x="334" y="155"/>
      <point x="319" y="180"/>
      <point x="298" y="199" type="curve" smooth="yes"/>
      <point x="271" y="223"/>
      <point x="233" y="238"/>
      <point x="197" y="251" type="curve" smooth="yes"/>
      <point x="169" y="262"/>
      <point x="141" y="272"/>
      <point x="120" y="284" type="curve" smooth="yes"/>
      <point x="99" y="296"/>
      <point x="83" y="311"/>
      <point x="79" y="331" type="curve"/>
      <point x="75" y="363"/>
      <point x="88" y="386"/>
      <point x="110" y="400" type="curve" smooth="yes"/>
      <point x="129" y="413"/>
      <point x="154" y="420"/>
      <point x="181" y="421" type="curve" smooth="yes"/>
      <point x="214" y="422"/>
      <point x="250" y="415"/>
    </contour>
    <contour>
      <point x="144" y="-180" type="curve"/>
      <point x="160" y="-191" type="line"/>
      <point x="178" y="-174"/>
      <point x="207" y="-139"/>
      <point x="208" y="-82" type="curve"/>
      <point x="207" y="-64"/>
      <point x="194" y="-51"/>
      <point x="177" y="-51" type="curve" smooth="yes"/>
      <point x="161" y="-51"/>
      <point x="147" y="-65"/>
      <point x="147" y="-82" type="curve" smooth="yes"/>
      <point x="147" y="-97"/>
      <point x="158" y="-109"/>
      <point x="172" y="-112" type="curve"/>
      <point x="170" y="-131"/>
      <point x="163" y="-156"/>
    </contour>
  </outline>
</glyph>
<glyph name="breve" format="1">
  <advance width="346"/>
  <unicode hex="02D8"/>
  <outline>
    <contour>
      <point x="245" y="638" type="line"/>
      <point x="204" y="638" type="line"/>
      <point x="204" y="632" type="line" smooth="yes"/>
      <point x="204" y="597"/>
      <point x="177" y="570"/>
      <point x="143" y="570" type="curve" smooth="yes"/>
      <point x="109" y="570"/>
      <point x="81" y="597"/>
      <point x="81" y="632" type="curve" smooth="yes"/>
      <point x="81" y="638" type="line"/>
      <point x="40" y="638" type="line"/>
      <point x="40" y="632" type="line" smooth="yes"/>
      <point x="40" y="575"/>
      <point x="86" y="529"/>
      <point x="143" y="529" type="curve" smooth="yes"/>
      <point x="199" y="529"/>
      <point x="245" y="575"/>
      <point x="245" y="632" type="curve" smooth="yes"/>
    </contour>
  </outline>
</glyph>
<glyph name="Mu" format="1">
  <advance width="527"/>
  <unicode hex="039C"/>
  <outline>
    <contour>
      <point x="20" y="0" type="line"/>
      <point x="71" y="0" type="line"/>
      <point x="71" y="485" type="line"/>
      <point x="235" y="0" type="line"/>
      <point x="290" y="0" type="line"/>
      <point x="455" y="485" type="line"/>
      <point x="455" y="0" type="line"/>
      <point x="506" y="0" type="line"/>
      <point x="506" y="635" type="line"/>
      <point x="455" y="635" type="line"/>
      <point x="262" y="78" type="line"/>
      <point x="71" y="635" type="line"/>
      <point x="20" y="635" type="line"/>
    </contour>
  </outline>
</glyph>
<glyph name="Pi" format="1">
  <advance width="431"/>
  <unicode hex="03A0"/>
  <outline>
    <contour>
      <point x="410" y="635" type="line"/>
      <point x="20" y="635" type="line"/>
      <point x="20" y="0" type="line"/>
      <point x="71" y="0" type="line"/>
      <point x="71" y="583" type="line"/>
      <point x="358" y="583" type="line"/>
      <point x="358" y="0" type="line"/>
      <point x="410" y="0" type="line"/>
    </contour>
  </outline>
</glyph>
<glyph name="alpha" format="1">
  <advance width="363"/>
  <unicode hex="03B1"/>
  <outline>
    <contour>
      <point x="348" y="441" type="curve"/>
      <point x="308" y="460" type="line"/>
      <point x="301" y="444"/>
      <point x="296" y="421"/>
      <point x="296" y="421" type="curve"/>
      <point x="247" y="445"/>
      <point x="193" y="460"/>
      <point x="145" y="460" type="curve" smooth="yes"/>
      <point x="76" y="460"/>
      <point x="11" y="428"/>
      <point x="11" y="321" type="curve" smooth="yes"/>
      <point x="11" y="153" type="line" smooth="yes"/>
      <point x="11" y="17"/>
      <point x="101" y="-6"/>
      <point x="187" y="-4" type="curve" smooth="yes"/>
      <point x="229" y="-2"/>
      <point x="342" y="4"/>
      <point x="342" y="4" type="curve"/>
      <point x="342" y="363" type="line" smooth="yes"/>
      <point x="342" y="406"/>
      <point x="348" y="441"/>
    </contour>
    <contour>
      <point x="61" y="147" type="curve" smooth="yes"/>
      <point x="61" y="318" type="line" smooth="yes"/>
      <point x="61" y="407"/>
      <point x="114" y="415"/>
      <point x="143" y="413" type="curve"/>
      <point x="179" y="413"/>
      <point x="229" y="401"/>
      <point x="291" y="376" type="curve"/>
      <point x="291" y="47" type="line"/>
      <point x="291" y="47"/>
      <point x="234" y="42"/>
      <point x="169" y="42" type="curve" smooth="yes"/>
      <point x="97" y="42"/>
      <point x="61" y="79"/>
    </contour>
  </outline>
</glyph>
<glyph name="upsilondieresis" format="1">
  <advance width="364"/>
  <unicode hex="03CB"/>
  <outline>
    <contour>
      <point x="349" y="167" type="curve" smooth="yes"/>
      <point x="349" y="454" type="line"/>
      <point x="300" y="454" type="line"/>
      <point x="300" y="158" type="line" smooth="yes"/>
      <point x="300" y="84"/>
      <point x="260" y="36"/>
      <point x="185" y="36" type="curve" smooth="yes"/>
      <point x="112" y="36"/>
      <point x="65" y="85"/>
      <point x="65" y="158" type="curve" smooth="yes"/>
      <point x="65" y="454" type="line"/>
      <point x="13" y="454" type="line"/>
      <point x="13" y="167" type="line" smooth="yes"/>
      <point x="13" y="68"/>
      <point x="71" y="-9"/>
      <point x="184" y="-9" type="curve" smooth="yes"/>
      <point x="296" y="-9"/>
      <point x="349" y="65"/>
    </contour>
    <contour>
      <point x="283" y="547" type="curve" smooth="yes"/>
      <point x="283" y="564"/>
      <point x="269" y="577"/>
      <point x="253" y="577" type="curve" smooth="yes"/>
      <point x="236" y="577"/>
      <point x="222" y="564"/>
      <point x="222" y="547" type="curve" smooth="yes"/>
      <point x="222" y="530"/>
      <point x="236" y="517"/>
      <point x="253" y="517" type="curve" smooth="yes"/>
      <point x="269" y="517"/>
      <point x="283" y="530"/>
    </contour>
    <contour>
      <point x="139" y="547" type="curve" smooth="yes"/>
      <point x="139" y="564"/>
      <point x="126" y="577"/>
      <point x="109" y="577" type="curve" smooth="yes"/>
      <point x="92" y="577"/>
      <point x="79" y="564"/>
      <point x="79" y="547" type="curve" smooth="yes"/>
      <point x="79" y="530"/>
      <point x="92" y="517"/>
      <point x="109" y="517" type="curve" smooth="yes"/>
      <point x="126" y="517"/>
      <point x="139" y="530"/>
    </contour>
  </outline>
</glyph>
<glyph name="quotedblbase" format="1">
  <advance width="260"/>
  <unicode hex="201E"/>
  <outline>
    <contour>
      <point x="16" y="-59" type="curve"/>
      <point x="32" y="-70" type="line"/>
      <point x="50" y="-54"/>
      <point x="79" y="-18"/>
      <point x="80" y="39" type="curve"/>
      <point x="79" y="57"/>
      <point x="66" y="69"/>
      <point x="49" y="69" type="curve" smooth="yes"/>
      <point x="32" y="69"/>
      <point x="19" y="56"/>
      <point x="19" y="39" type="curve" smooth="yes"/>
      <point x="19" y="24"/>
      <point x="30" y="12"/>
      <point x="44" y="9" type="curve"/>
      <point x="42" y="-10"/>
      <point x="35" y="-35"/>
    </contour>
    <contour>
      <point x="179" y="-59" type="curve"/>
      <point x="195" y="-70" type="line"/>
      <point x="213" y="-54"/>
      <point x="243" y="-18"/>
      <point x="243" y="39" type="curve" smooth="yes"/>
      <point x="243" y="57"/>
      <point x="229" y="69"/>
      <point x="212" y="69" type="curve" smooth="yes"/>
      <point x="196" y="69"/>
      <point x="182" y="56"/>
      <point x="182" y="39" type="curve" smooth="yes"/>
      <point x="182" y="24"/>
      <point x="193" y="12"/>
      <point x="207" y="9" type="curve"/>
      <point x="205" y="-10"/>
      <point x="198" y="-35"/>
    </contour>
  </outline>
</glyph>
<glyph name="fraction" format="1">
  <advance width="372"/>
  <unicode hex="2044"/>
  <outline>
    <contour>
      <point x="359" y="741" type="line"/>
      <point x="303" y="741" type="line"/>
      <point x="13" y="-103" type="line"/>
      <point x="65" y="-103" type="line"/>
    </contour>
  </outline>
</glyph>
<glyph name="Y_alt" format="1">
  <advance width="406"/>
  <unicode hex="9997"/>
  <outline>
    <contour>
      <point x="358" y="635" type="line"/>
      <point x="201" y="368" type="line"/>
      <point x="45" y="635" type="line"/>
      <point x="-12" y="635" type="line"/>
      <point x="176" y="308" type="line"/>
      <point x="176" y="0" type="line"/>
      <point x="227" y="0" type="line"/>
      <point x="227" y="310" type="line"/>
      <point x="416" y="635" type="line"/>
    </contour>
  </outline>
</glyph>
<glyph name="ft" format="1">
  <advance width="393"/>
  <outline>
    <contour>
      <point x="277" y="120" type="curve" smooth="yes"/>
      <point x="277" y="405" type="line"/>
      <point x="306" y="405"/>
      <point x="336" y="405"/>
      <point x="365" y="405" type="curve"/>
      <point x="386" y="453" type="line"/>
      <point x="346" y="453"/>
      <point x="310" y="453"/>
      <point x="278" y="453" type="curve"/>
      <point x="278" y="499"/>
      <point x="278" y="547"/>
      <point x="278" y="595" type="curve"/>
      <point x="239" y="626"/>
      <point x="196" y="640"/>
      <point x="156" y="640" type="curve" smooth="yes"/>
      <point x="80" y="640"/>
      <point x="17" y="589"/>
      <point x="20" y="509" type="curve" smooth="yes"/>
      <point x="20" y="339"/>
      <point x="20" y="170"/>
      <point x="20" y="0" type="curve"/>
      <point x="37" y="0"/>
      <point x="54" y="0"/>
      <point x="71" y="0" type="curve"/>
      <point x="71" y="405" type="line"/>
      <point x="152" y="405" type="line"/>
      <point x="174" y="453" type="line"/>
      <point x="131" y="453"/>
      <point x="101" y="453"/>
      <point x="71" y="453" type="curve"/>
      <point x="71" y="464"/>
      <point x="71" y="479"/>
      <point x="71" y="498" type="curve" smooth="yes"/>
      <point x="71" y="562"/>
      <point x="109" y="587"/>
      <point x="154" y="587" type="curve" smooth="yes"/>
      <point x="173" y="587"/>
      <point x="199" y="584"/>
      <point x="227" y="565" type="curve"/>
      <point x="227" y="417"/>
      <point x="227" y="268"/>
      <point x="227" y="120" type="curve" smooth="yes"/>
      <point x="227" y="48"/>
      <point x="255" y="7"/>
      <point x="323" y="-12" type="curve"/>
      <point x="337" y="27" type="line"/>
      <point x="297" y="41"/>
      <point x="277" y="72"/>
    </contour>
  </outline>
</glyph>
